<svg width="100" height="100" viewBox="0 0 100 100" fill="none" xmlns="http://www.w3.org/2000/svg">
<circle cx="50" cy="50" r="50" fill="#007AFF"/>
<path d="M8 59.1V45.75H12.45V41.3H16.9V36.85H21.35H25.8H30.25V50.2H25.8V54.65H30.25V68H16.9V63.55H12.45V59.1H8ZM12.45 50.2V54.65H16.9V59.1H21.35V63.55H25.8V59.1H21.35V54.65H16.9V50.2H21.35V45.75H25.8V41.3H21.35V45.75H16.9V50.2H12.45ZM34.7 68V36.85H48.05V41.3H52.5V36.85H65.85V68H52.5V59.1H48.05V68H34.7ZM43.6 45.75V41.3H39.15V63.55H43.6V50.2H48.05V54.65H52.5V50.2H56.95V63.55H61.4V41.3H56.95V45.75H52.5V50.2H48.05V45.75H43.6ZM70.3 68V54.65H74.75V50.2H70.3V36.85H83.65V41.3H88.1V45.75H92.55V59.1H88.1V63.55H83.65V68H70.3ZM74.75 59.1V63.55H79.2V59.1H83.65V54.65H88.1V50.2H83.65V45.75H79.2V41.3H74.75V45.75H79.2V50.2H83.65V54.65H79.2V59.1H74.75Z" fill="white"/>
</svg>
