<svg width="235" height="135" viewBox="0 0 235 135" fill="none" xmlns="http://www.w3.org/2000/svg">
<path d="M5.632 11.736H38.912C57.088 11.736 65.792 20.952 65.792 39.128V91.48C65.792 109.784 57.216 119 38.912 119H5.632V11.736ZM36.736 12.888H25.984V117.72H36.864C45.568 117.72 46.08 106.84 46.08 100.312V31.832C46.08 25.048 45.952 12.888 36.736 12.888Z" fill="black"/>
<path d="M85.3554 119.115L62.8323 11.7414L82.672 11.837L101.521 111.257L125.68 12.0441L129.264 12.0614L100.715 119.189L85.3554 119.115Z" fill="black"/>
<path d="M99.504 11.736H120.112L146.608 107.864L169.136 11.736H189.744V119H170.16V20.824L145.328 119H129.456L100.784 13.656L103.216 119H99.504V11.736ZM229.17 109.016V119H213.682V109.016H229.17Z" fill="#0640FC"/>
</svg>
