<svg role="img" viewBox="0 0 24 24" xmlns="http://www.w3.org/2000/svg" id="Hackerrank--Streamline-Simple-Icons">
  <desc>
    Hackerrank Streamline Icon: https://streamlinehq.com
  </desc>
  <title>HackerRank</title>
  <path d="M0 0v24h24V0zm9.95 8.002h1.805c0.061 0 0.111 0.05 0.111 0.111v7.767c0 0.061 -0.05 0.111 -0.11 0.111H9.95c-0.061 0 -0.111 -0.05 -0.111 -0.11v-2.87H7.894v2.87c0 0.06 -0.05 0.11 -0.11 0.11H5.976a0.11 0.11 0 0 1 -0.11 -0.11V8.112c0 -0.06 0.05 -0.11 0.11 -0.11h1.806c0.061 0 0.11 0.05 0.11 0.11v2.869H9.84v-2.87c0 -0.06 0.05 -0.11 0.11 -0.11zm2.999 0h5.778c0.061 0 0.111 0.05 0.111 0.11v7.767a0.11 0.11 0 0 1 -0.11 0.112h-5.78a0.11 0.11 0 0 1 -0.11 -0.11v-7.77c0 -0.06 0.05 -0.11 0.11 -0.11z" fill="#08ea68" stroke-width="1"></path>
</svg>