<svg xmlns="http://www.w3.org/2000/svg" viewBox="0 0 16 16" fill="#000000" id="Stack-2--Streamline-Tabler-Filled" height="16" width="16"><desc>Stack 2 Streamline Icon: https://streamlinehq.com</desc><path d="M13.929333333333332 10.368666666666666a0.6666666666666666 0.6666666666666666 0 0 1 -0.298 0.8939999999999999l-5.333333333333333 2.6666666666666665a0.6666666666666666 0.6666666666666666 0 0 1 -0.596 0l-5.333333333333333 -2.6666666666666665a0.6666666666666666 0.6666666666666666 0 0 1 0.596 -1.192L8 12.586666666666666l5.036 -2.5166666666666666a0.6666666666666666 0.6666666666666666 0 0 1 0.8939999999999999 0.298m0 -2.6666666666666665a0.6666666666666666 0.6666666666666666 0 0 1 -0.298 0.8939999999999999l-5.333333333333333 2.6666666666666665a0.6666666666666666 0.6666666666666666 0 0 1 -0.596 0l-5.333333333333333 -2.6666666666666665a0.6666666666666666 0.6666666666666666 0 0 1 0.596 -1.192L8 9.92l5.036 -2.5166666666666666a0.6666666666666666 0.6666666666666666 0 0 1 0.8939999999999999 0.298M8.005333333333333 2q0.03733333333333333 0 0.074 0.004666666666666666l0.074 0.013333333333333332 0.057333333333333326 0.016 0.008 0.004 0.008 0.0013333333333333333 0.019333333333333334 0.009333333333333332 0.03333333333333333 0.012666666666666666 0.010666666666666666 0.005999999999999999 0.008 0.003333333333333333 5.333333333333333 2.6666666666666665a0.6666666666666666 0.6666666666666666 0 0 1 0 1.192l-5.333333333333333 2.6666666666666665a0.6666666666666666 0.6666666666666666 0 0 1 -0.596 0l-5.333333333333333 -2.6666666666666665a0.6666666666666666 0.6666666666666666 0 0 1 0 -1.192l5.333333333333333 -2.6666666666666665 0.007333333333333332 -0.003333333333333333 0.011999999999999999 -0.006666666666666666 0.052 -0.021333333333333333 0.007333333333333332 -0.0013333333333333333 0.008666666666666666 -0.004 0.057333333333333326 -0.016 0.07333333333333333 -0.013333333333333332 0.03733333333333333 -0.003333333333333333z" stroke-width="0.6667"></path></svg>